HIERARCHY
ROOT hip
{
	OFFSET 0.000000 0.000000 0.000000 
	CHANNELS 6 Xposition Yposition Zposition Xrotation Zrotation Yrotation
	JOINT abdomen
	{
		OFFSET 0.000000 3.402643 0.000000 
		CHANNELS 3 Xrotation Zrotation Yrotation
		JOINT chest
		{
			OFFSET 0.000000 8.438565 -0.680529 
			CHANNELS 3 Xrotation Zrotation Yrotation
			JOINT neck
			{
				OFFSET 0.000000 10.207942 -0.272212 
				CHANNELS 3 Xrotation Zrotation Yrotation
				JOINT head
				{
					OFFSET 0.000000 3.130431 0.000000 
					CHANNELS 3 Xrotation Zrotation Yrotation
					End Site
					{
						OFFSET 0.000000 3.130435 0.000000 
					}
				}
			}
			JOINT lCollar
			{
				OFFSET 3.470700 6.669187 -0.816635 
				CHANNELS 3 Yrotation Zrotation Xrotation
				JOINT lShldr
				{
					OFFSET 3.198488 0.000000 0.000000 
					CHANNELS 3 Zrotation Yrotation Xrotation
					JOINT lForeArm
					{
						OFFSET 10.139888 0.000000 0.000000 
						CHANNELS 3 Yrotation Zrotation Xrotation
						JOINT lHand
						{
							OFFSET 8.370511 0.000000 0.000000 
							CHANNELS 3 Zrotation Yrotation Xrotation
							End Site
							{
								OFFSET 4.083176 0.000000 0.000000 
							}
						}
					}
				}
			}
			JOINT rCollar
			{
				OFFSET -3.470700 6.669187 -0.816635 
				CHANNELS 3 Yrotation Zrotation Xrotation
				JOINT rShldr
				{
					OFFSET -3.198488 0.000000 0.000000 
					CHANNELS 3 Zrotation Yrotation Xrotation
					JOINT rForeArm
					{
						OFFSET -10.139888 0.000000 0.000000 
						CHANNELS 3 Yrotation Zrotation Xrotation
						JOINT rHand
						{
							OFFSET -8.370511 0.000000 0.000000 
							CHANNELS 3 Zrotation Yrotation Xrotation
							End Site
							{
								OFFSET -4.083176 0.000000 0.000000 
							}
						}
					}
				}
			}
		}
	}
	JOINT lThigh
	{
		OFFSET 5.308129 -1.633274 1.361059 
		CHANNELS 3 Xrotation Zrotation Yrotation
		JOINT lShin
		{
			OFFSET -2.041588 -20.007561 0.000000 
			CHANNELS 3 Xrotation Zrotation Yrotation
			JOINT lFoot
			{
				OFFSET 0.000000 -19.190928 -1.224953 
				CHANNELS 3 Xrotation Yrotation Zrotation
				End Site
				{
					OFFSET 0.000000 -2.449906 4.627600 
				}
			}
		}
	}
	JOINT rThigh
	{
		OFFSET -5.308129 -1.633274 1.361059 
		CHANNELS 3 Xrotation Zrotation Yrotation
		JOINT rShin
		{
			OFFSET 2.041588 -20.007561 0.000000 
			CHANNELS 3 Xrotation Zrotation Yrotation
			JOINT rFoot
			{
				OFFSET 0.000000 -19.190928 -1.224953 
				CHANNELS 3 Xrotation Yrotation Zrotation
				End Site
				{
					OFFSET 0.000000 -2.449906 4.627600 
				}
			}
		}
	}
}
MOTION
Frames: 10
Frame Time: 0.033333
-4.196058 51.889618 -3.999998 -1.838351 2.888719 2.082847 0.000000 0.000000 0.000000 1.500293 -1.093733 -0.322393 4.353823 -0.400308 -1.162149 7.775136 -0.117175 -0.830096 -4.870023 6.192335 2.114080 -8.431367 -32.687859 -20.104376 -0.101071 -5.003398 35.960506 9.091784 -7.029941 -4.180064 3.214819 -1.928336 2.029604 2.206783 39.230858 -13.588558 0.500453 4.711294 34.294304 -6.275787 10.595598 -4.069578 -3.971480 8.936833 4.167582 14.235085 1.002851 -3.119348 -2.273497 0.164361 -8.656128 -1.191771 -10.931130 -6.885536 9.125424 1.334877 -8.644921 -4.006055 -0.256938 6.961887 
-3.918741 52.001987 -3.925395 -1.429942 2.938261 1.633220 0.000000 0.000000 0.000000 1.131536 -0.996058 -0.488377 4.431561 -0.449152 -0.986374 7.306332 -0.185540 -0.507842 -4.437966 5.834263 1.751856 -9.797925 -28.576561 -20.864281 -0.069426 -4.135586 34.071682 8.161475 -6.916649 -4.080769 2.936182 -2.482422 1.698836 3.712288 36.304195 -14.286614 0.322358 4.180299 33.049915 -5.842958 10.260500 -4.005516 -3.289972 7.955476 3.970673 13.064461 0.602837 -3.698789 -3.092173 0.186903 -7.298362 -0.117985 -11.177916 -7.257854 6.084826 1.459584 -8.570679 -2.402048 -0.161897 6.924473 
-3.537992 52.095219 -3.842933 -0.846334 2.919615 0.831488 0.000000 0.000000 0.000000 0.590599 -0.976551 -0.273564 4.456915 -0.322243 -0.673872 6.737256 0.136715 -0.429686 -3.893509 6.078683 1.253644 -11.307950 -24.724171 -21.100569 -0.038203 -3.398540 33.249195 7.005974 -6.942895 -3.983714 2.567081 -2.730434 1.191677 4.994491 33.243332 -14.610980 0.181022 3.668077 31.689510 -5.743038 10.560746 -4.004583 -1.717416 6.984801 4.157831 9.741324 0.007772 -2.381052 -3.129740 0.153520 -6.205222 0.896965 -11.489056 -7.598916 2.720806 1.587214 -8.061025 -0.660400 -0.055544 7.011603 
-3.066686 52.162796 -3.830375 0.287095 2.851560 0.078514 0.000000 0.000000 0.000000 -0.332516 -0.947266 0.029293 4.376698 -0.195305 -0.498077 6.099396 0.439434 -0.537094 -3.209767 6.510944 0.401622 -12.544909 -21.075869 -19.921122 0.018618 -3.359673 32.271404 6.685764 -6.042865 -3.911820 2.509893 -3.109239 0.362042 6.397290 29.569515 -14.272291 0.123942 3.177073 31.130676 -6.200344 10.326167 -4.047904 0.048515 6.003378 4.244664 4.243671 -0.195143 2.003068 -1.866737 0.104425 -5.622509 0.184667 -11.998081 -7.600632 1.589831 1.665663 -7.212820 0.057533 -0.029837 7.443402 
-2.568387 52.230858 -3.724077 0.050551 2.050766 -0.224466 0.000000 0.000000 0.000000 -0.176001 -0.429687 0.029296 4.704208 0.312487 -0.517570 5.471165 0.673788 -0.624957 -2.973049 7.304965 0.569763 -13.500802 -17.459515 -19.467812 0.060388 -3.077417 31.854780 6.515383 -6.142015 -3.903719 2.300434 -2.988709 0.479011 7.063672 25.936567 -14.810798 0.087315 2.471492 30.735273 -5.731057 10.532318 -3.998415 1.696716 5.930187 4.772485 1.570881 -0.116711 4.826547 -1.829677 0.077807 -5.107155 0.604011 -11.888019 -7.707318 1.315409 1.867364 -6.779058 0.288985 0.012814 7.912634 
-1.972725 52.265217 -3.716017 0.493207 1.669915 -0.165945 0.000000 0.000000 0.000000 -0.438974 -0.156249 -0.175807 4.916332 0.439418 -0.722635 4.393457 0.859307 -0.722721 -2.818747 7.551686 0.343563 -14.056013 -14.173573 -19.214762 0.101175 -2.856841 31.058485 5.612873 -5.505151 -3.800689 2.075464 -3.359978 0.254449 7.657841 22.162216 -14.842515 0.040701 1.992507 29.799459 -5.354350 10.644218 -3.956814 1.248928 5.545096 4.455168 1.464218 -0.065921 5.739414 -1.960271 0.080454 -4.551185 0.311091 -12.188424 -7.856041 0.975753 1.930790 -7.101138 0.987138 0.063797 8.506138 
-1.333290 52.310661 -3.732476 0.781518 1.572266 0.010030 0.000000 0.000000 0.000000 -0.449019 -0.117187 -0.097676 5.042777 0.351510 -0.986310 3.643210 1.366887 -1.201296 -2.642120 7.856364 0.324247 -14.731043 -11.774096 -19.737555 0.163182 -2.575821 29.909693 4.834620 -4.644203 -3.712867 1.764109 -3.918599 0.235052 8.430939 18.127317 -14.875141 0.022913 1.447279 28.601137 -5.169368 10.508850 -3.930110 0.896660 4.897366 4.208408 1.281749 -0.299502 6.500161 -1.788688 0.072758 -3.448711 0.252391 -12.697919 -7.968757 0.488064 1.751565 -7.126355 1.592077 0.119504 8.976247 
-0.665077 52.354790 -3.759705 0.991752 1.591791 -0.156190 0.000000 0.000000 0.000000 -0.400441 -0.048828 0.058594 5.205503 -0.029294 -0.830083 3.075222 1.932953 -1.475417 -2.251939 7.701927 0.334022 -14.976748 -9.584971 -20.148073 0.237216 -2.329387 28.645258 4.295873 -3.992103 -3.669008 1.710072 -4.640906 0.255333 8.902396 14.332618 -14.435545 -0.011076 1.240285 26.675327 -4.576676 10.467583 -3.854186 0.731927 4.237387 4.185116 1.091322 -0.730007 7.009125 -1.792331 0.035351 -2.318446 0.067912 -13.228663 -7.997058 0.107302 1.442657 -7.064346 2.455732 0.181393 8.971806 
-0.018384 52.361473 -3.769069 1.160971 1.279251 -0.488378 0.000000 0.000000 0.000000 -0.409108 0.175778 0.341825 5.516388 0.107415 -0.634764 2.371425 2.088976 -1.651429 -1.895867 8.348217 0.345084 -15.477162 -7.474174 -19.924166 0.303605 -2.262424 27.403624 3.787641 -3.701556 -3.623301 1.751356 -5.138775 0.255393 9.676311 10.746950 -13.880777 -0.040288 1.132844 24.848135 -4.389771 10.272928 -3.835774 0.614591 3.965168 4.307445 1.013960 -1.100241 7.278944 -1.897571 0.023698 -1.514582 -0.205531 -13.415874 -7.808383 -0.046258 1.181086 -6.491464 2.863374 0.172368 8.573511 
0.598401 52.382599 -3.809295 1.440782 1.103423 -0.742238 0.000000 0.000000 0.000000 -0.466385 0.283193 0.478558 5.624864 0.019531 -0.400391 2.401632 2.567150 -1.759547 -1.568851 8.810454 0.295389 -15.700040 -5.500504 -19.616287 0.364543 -2.237864 26.289473 3.437148 -3.409914 -3.602476 1.650448 -5.726830 0.197181 10.493538 7.701224 -13.728250 -0.064558 1.017510 23.802233 -4.222321 10.097135 -3.813685 0.409763 3.668888 4.510505 0.934347 -1.583498 7.686833 -2.014332 0.002451 -1.176656 -0.830398 -13.768372 -7.827852 0.312485 1.083638 -5.915754 3.342365 0.189880 8.204081 
